<?xml version="1.0" standalone="no"?>
<!DOCTYPE svg PUBLIC "-//W3C//DTD SVG 20010904//EN"
 "http://www.w3.org/TR/2001/REC-SVG-20010904/DTD/svg10.dtd">
<svg version="1.0" xmlns="http://www.w3.org/2000/svg"
 width="1689.000000pt" height="441.000000pt" viewBox="0 0 1689.000000 441.000000"
 preserveAspectRatio="xMidYMid meet">

<g transform="translate(0.000000,441.000000) scale(0.100000,-0.100000)"
fill="#000000" stroke="none">
<path d="M5033 3505 c-131 -37 -224 -111 -275 -222 -25 -54 -32 -82 -36 -158
-10 -205 82 -353 267 -427 47 -19 75 -22 176 -22 106 0 130 3 205 30 l85 29 3
198 2 197 -150 0 -151 0 3 -42 3 -43 93 -3 92 -3 0 -113 0 -114 -42 -17 c-24
-9 -77 -19 -119 -22 -112 -8 -178 15 -250 87 -71 70 -94 131 -94 245 1 132 61
237 170 292 97 50 232 39 322 -26 l41 -30 37 44 36 45 -33 20 c-100 61 -275
86 -385 55z"/>
<path d="M6695 3506 c-127 -31 -224 -109 -277 -222 -62 -132 -48 -312 33 -434
58 -87 148 -146 257 -169 300 -63 552 154 529 457 -10 137 -98 271 -215 331
-95 48 -222 63 -327 37z m251 -109 c152 -77 214 -277 138 -447 -31 -68 -74
-114 -139 -148 -69 -36 -197 -38 -266 -4 -146 71 -211 242 -160 412 19 62 31
82 80 131 71 70 124 90 226 85 51 -2 84 -10 121 -29z"/>
<path d="M5760 3095 l0 -405 240 0 240 0 0 50 0 50 -185 0 -185 0 0 355 0 355
-55 0 -55 0 0 -405z"/>
<path d="M7500 3095 l0 -407 188 4 187 3 66 32 c88 44 122 91 127 179 3 50 0
72 -18 109 -23 48 -73 88 -123 101 l-29 7 31 15 c46 22 90 71 97 109 19 102
-18 182 -103 224 -44 22 -63 24 -235 27 l-188 4 0 -407z m332 303 c22 -6 51
-25 65 -42 21 -26 24 -37 21 -78 -9 -91 -59 -118 -215 -118 l-93 0 0 125 0
125 91 0 c51 0 109 -5 131 -12z m55 -351 c68 -37 93 -125 51 -186 -41 -62 -78
-76 -210 -80 l-118 -3 0 147 0 147 123 -4 c91 -3 130 -8 154 -21z"/>
<path d="M8607 3493 c-8 -13 -347 -794 -347 -799 0 -3 28 -4 62 -2 l62 3 40
98 40 97 194 -2 194 -3 41 -97 40 -98 63 0 c35 0 64 1 64 3 0 1 -78 182 -173
402 l-173 400 -51 3 c-28 2 -53 -1 -56 -5z m131 -333 l70 -175 -145 -3 c-80
-1 -148 0 -151 2 -2 3 28 87 68 186 40 100 76 178 81 173 4 -4 39 -87 77 -183z"/>
<path d="M9270 3095 l0 -405 240 0 240 0 0 50 0 50 -185 0 -185 0 0 355 0 355
-55 0 -55 0 0 -405z"/>
<path d="M2940 3324 c-129 -58 -278 -125 -330 -150 -52 -24 -101 -44 -107 -44
-7 0 -72 27 -144 61 l-131 61 -212 -97 c-116 -53 -224 -102 -241 -109 -28 -12
-42 -7 -259 92 l-230 104 -260 -128 c-144 -70 -268 -133 -276 -139 -8 -5 -85
-46 -171 -90 l-156 -80 25 -52 25 -52 68 35 c38 19 73 34 79 34 6 0 10 -48 10
-130 l0 -130 -67 -30 c-37 -17 -69 -32 -71 -34 -4 -5 39 -106 45 -106 3 0 385
176 848 391 l843 390 834 -390 c459 -215 837 -391 841 -391 4 0 18 22 32 50
l25 50 -60 30 -60 30 0 250 c0 138 2 250 5 250 3 0 22 -8 43 -19 73 -37 79
-36 102 8 11 22 20 46 20 54 0 7 -35 28 -77 47 -43 18 -118 53 -168 76 -92 43
-562 253 -580 259 -5 2 -116 -44 -245 -101z m511 -147 l274 -124 3 -246 c2
-194 0 -247 -10 -247 -23 0 -1068 494 -1060 502 4 4 122 59 262 122 140 63
255 115 256 115 1 1 124 -54 275 -122z m-2008 -136 c82 -38 147 -72 146 -77
-2 -9 -824 -394 -841 -394 -5 0 -7 60 -6 133 l3 132 270 137 c149 75 272 137
275 137 3 0 72 -30 153 -68z"/>
<path d="M2151 2820 c-72 -15 -130 -49 -171 -101 -62 -78 -77 -135 -105 -382
-14 -122 -34 -276 -45 -342 -11 -66 -20 -123 -20 -127 0 -4 -24 -19 -54 -33
-60 -28 -120 -88 -142 -141 -8 -20 -17 -88 -21 -159 l-6 -125 637 0 637 0 -6
83 c-14 171 -22 205 -57 255 -25 33 -53 57 -99 80 -35 18 -67 41 -71 50 -11
26 -45 260 -63 427 -22 219 -33 276 -65 342 -64 133 -204 202 -349 173z m239
-315 c69 -78 82 -112 81 -203 -1 -83 -19 -133 -71 -197 -31 -39 -32 -42 -28
-117 5 -75 4 -79 -24 -107 -74 -75 -208 -66 -269 20 -15 21 -16 32 -7 87 11
62 11 63 -21 105 -64 85 -75 115 -79 218 -4 95 -4 96 24 123 19 18 71 40 154
66 69 22 136 47 150 55 14 8 28 13 31 12 3 -1 30 -29 59 -62z"/>
<path d="M11051 2205 c-125 -35 -218 -111 -273 -223 -32 -64 -33 -71 -33 -187
1 -150 20 -207 102 -295 151 -163 423 -187 599 -53 l48 37 -68 62 -69 63 -36
-30 c-130 -104 -321 -34 -361 132 -29 119 15 248 102 302 80 50 192 46 258
-10 l31 -26 65 64 65 64 -36 32 c-78 67 -275 101 -394 68z"/>
<path d="M4920 2196 c-63 -18 -100 -39 -137 -78 -93 -96 -82 -258 22 -330 22
-16 85 -44 140 -64 133 -47 164 -76 143 -137 -26 -74 -150 -76 -242 -4 l-38
30 -67 -67 -66 -66 30 -25 c101 -84 271 -115 406 -75 51 15 114 63 146 112 25
37 28 50 28 128 0 79 -2 90 -28 123 -35 46 -89 78 -201 117 -123 44 -136 53
-136 101 0 34 5 42 33 59 55 34 149 20 202 -30 21 -20 21 -20 83 49 l62 70
-29 21 c-17 11 -55 32 -86 46 -69 32 -194 41 -265 20z"/>
<path d="M13495 2197 c-66 -18 -103 -38 -142 -79 -93 -96 -82 -258 22 -330 22
-16 85 -44 139 -63 133 -47 165 -77 144 -138 -26 -74 -150 -76 -242 -4 l-38
30 -66 -66 -65 -65 29 -26 c94 -83 270 -116 405 -76 51 15 114 63 146 112 36
53 45 166 18 219 -37 73 -75 98 -222 150 -120 42 -133 53 -133 100 0 34 5 42
33 59 55 34 149 20 203 -31 l21 -19 61 69 62 70 -29 21 c-17 11 -55 32 -86 46
-68 31 -184 40 -260 21z"/>
<path d="M5530 1785 l0 -405 100 0 100 0 0 170 0 170 160 0 160 0 0 -170 0
-170 95 0 95 0 0 405 0 405 -95 0 -95 0 0 -150 0 -150 -160 0 -160 0 0 150 0
150 -100 0 -100 0 0 -405z"/>
<path d="M6510 1785 l0 -405 285 0 285 0 0 85 0 85 -190 0 -190 0 0 85 0 85
170 0 170 0 0 80 0 80 -170 0 -170 0 0 70 0 70 180 0 180 0 0 85 0 85 -275 0
-275 0 0 -405z"/>
<path d="M7310 1785 l0 -405 260 0 260 0 0 85 0 85 -160 0 -160 0 0 320 0 320
-100 0 -100 0 0 -405z"/>
<path d="M7860 2105 l0 -85 115 0 115 0 0 -320 0 -320 95 0 95 0 0 320 0 320
115 0 115 0 0 85 0 85 -325 0 -325 0 0 -85z"/>
<path d="M8710 1785 l0 -405 285 0 285 0 0 85 0 85 -190 0 -190 0 0 85 0 85
170 0 170 0 0 80 0 80 -170 0 -170 0 0 70 0 70 180 0 180 0 0 85 0 85 -275 0
-275 0 0 -405z"/>
<path d="M9510 1785 l0 -405 100 0 100 0 0 160 0 160 33 0 c31 0 34 -4 117
-156 47 -86 90 -158 96 -160 5 -3 58 -3 115 -2 l105 3 -102 165 c-57 91 -103
168 -103 172 -1 3 12 11 27 16 41 14 97 66 117 109 27 55 23 152 -7 211 -54
104 -139 132 -410 132 l-188 0 0 -405z m397 219 c20 -15 29 -31 31 -58 6 -75
-42 -106 -165 -106 l-63 0 0 96 0 96 84 -3 c67 -3 91 -8 113 -25z"/>
<path d="M11680 1785 l0 -405 260 0 260 0 0 85 0 85 -160 0 -160 0 0 320 0
320 -100 0 -100 0 0 -405z"/>
<path d="M12360 1900 c0 -337 5 -361 87 -443 68 -68 132 -91 258 -91 90 -1
107 2 163 28 80 37 146 108 167 179 12 40 15 110 15 334 l0 283 -94 0 -95 0
-3 -277 c-3 -257 -5 -281 -23 -312 -55 -93 -206 -94 -260 -1 -19 33 -20 55
-23 313 l-3 277 -95 0 -94 0 0 -290z"/>
<path d="M14010 2105 l0 -85 115 0 115 0 0 -320 0 -320 95 0 95 0 0 320 0 320
115 0 115 0 0 85 0 85 -325 0 -325 0 0 -85z"/>
<path d="M14860 1785 l0 -405 285 0 285 0 0 85 0 85 -190 0 -190 0 0 85 0 85
170 0 170 0 0 80 0 80 -170 0 -170 0 0 70 0 70 180 0 180 0 0 85 0 85 -275 0
-275 0 0 -405z"/>
<path d="M15660 1785 l0 -405 100 0 100 0 0 160 0 160 33 0 c31 -1 34 -5 117
-156 47 -86 90 -158 96 -160 5 -3 58 -3 116 -2 l105 3 -103 165 c-56 91 -103
168 -103 171 -1 4 9 9 22 13 39 9 114 83 128 124 21 64 14 156 -16 208 -58 99
-141 124 -407 124 l-188 0 0 -405z m375 231 c38 -16 55 -42 55 -83 0 -64 -52
-93 -167 -93 l-63 0 0 95 0 95 70 0 c39 0 86 -6 105 -14z"/>
<path d="M2370 795 l0 -104 -37 25 c-66 45 -145 17 -179 -63 -21 -48 -18 -179
5 -229 34 -76 116 -92 189 -37 l32 24 0 -25 c0 -21 5 -26 25 -26 l25 0 0 270
0 270 -30 0 -30 0 0 -105z m-67 -116 c57 -30 67 -48 67 -128 0 -71 -2 -77 -32
-108 -37 -38 -85 -44 -111 -15 -47 51 -40 202 10 242 30 23 36 24 66 9z"/>
<path d="M9480 630 l0 -270 25 0 25 0 0 129 0 129 40 36 c46 41 58 44 91 17
23 -18 24 -27 29 -163 l5 -143 28 -3 27 -3 0 143 c0 116 -3 150 -18 178 -31
63 -94 77 -156 35 -20 -14 -39 -25 -41 -25 -3 0 -5 47 -5 105 l0 105 -25 0
-25 0 0 -270z"/>
<path d="M10250 630 l0 -270 25 0 25 0 0 270 0 270 -25 0 -25 0 0 -270z"/>
<path d="M12430 795 l0 -104 -37 25 c-66 45 -145 17 -179 -63 -21 -48 -18
-179 5 -229 34 -76 116 -92 189 -37 l32 24 0 -25 c0 -21 5 -26 25 -26 l25 0 0
270 0 270 -30 0 -30 0 0 -105z m-67 -116 c57 -30 67 -48 67 -128 0 -71 -2 -77
-32 -108 -37 -38 -85 -44 -111 -15 -47 51 -40 202 10 242 30 23 36 24 66 9z"/>
<path d="M13970 630 l0 -270 25 0 25 0 0 270 0 270 -25 0 -25 0 0 -270z"/>
<path d="M2552 871 c-8 -5 -12 -21 -10 -37 3 -25 7 -29 33 -29 24 0 31 5 33
23 6 39 -25 63 -56 43z"/>
<path d="M3707 873 c-4 -3 -7 -19 -7 -34 0 -34 34 -49 57 -26 23 23 9 67 -21
67 -12 0 -26 -3 -29 -7z"/>
<path d="M7002 871 c-8 -5 -12 -21 -10 -37 3 -25 7 -29 33 -29 24 0 31 5 33
23 6 39 -25 63 -56 43z"/>
<path d="M8042 871 c-8 -5 -12 -21 -10 -37 3 -25 7 -29 33 -29 24 0 31 5 33
23 6 39 -25 63 -56 43z"/>
<path d="M812 849 c-81 -41 -116 -124 -110 -263 4 -104 30 -165 85 -202 86
-58 243 -24 243 52 0 14 -3 24 -7 22 -5 -2 -30 -14 -57 -27 -116 -55 -204 20
-205 174 -1 114 36 184 109 206 35 11 45 9 92 -14 59 -29 79 -23 60 18 -25 54
-134 72 -210 34z"/>
<path d="M4812 862 c-9 -7 -12 -64 -10 -253 l3 -244 27 -3 27 -3 3 118 3 118
105 0 105 0 3 -117 3 -118 24 0 25 0 -2 253 c-3 244 -4 252 -23 252 -18 0 -20
-8 -25 -105 l-5 -105 -105 0 -105 0 -5 105 c-4 83 -8 105 -20 107 -8 2 -21 -1
-28 -5z"/>
<path d="M9184 854 c-40 -19 -64 -62 -64 -114 0 -63 28 -100 111 -145 76 -42
104 -77 93 -120 -15 -61 -92 -82 -164 -45 -50 26 -50 26 -50 -10 0 -40 45 -64
120 -64 67 -1 115 24 141 74 42 78 13 153 -81 206 -112 64 -140 119 -84 163
34 26 64 26 115 0 l40 -20 -3 33 c-2 23 -10 36 -28 45 -34 17 -108 16 -146 -3z"/>
<path d="M12834 854 c-40 -19 -64 -62 -64 -114 0 -63 28 -100 111 -145 76 -42
104 -77 93 -120 -15 -61 -92 -82 -164 -45 -50 26 -50 26 -50 -10 0 -39 45 -63
120 -64 102 -1 165 62 157 157 -5 59 -34 92 -118 137 -32 17 -65 41 -74 53
-23 33 -19 73 11 96 34 26 64 26 115 0 l40 -20 -3 33 c-2 23 -10 36 -28 45
-34 17 -108 16 -146 -3z"/>
<path d="M13730 785 l0 -55 -80 0 -80 0 0 44 c0 36 -4 46 -20 51 -30 10 -40
-2 -40 -50 0 -40 -2 -44 -27 -47 -20 -2 -28 -9 -28 -23 0 -14 8 -21 28 -23
l27 -3 0 -133 c0 -118 2 -136 20 -159 38 -48 135 -44 128 6 -2 18 -8 21 -31
19 -51 -6 -57 8 -57 144 l0 124 80 0 80 0 0 -134 c0 -118 2 -136 20 -159 38
-48 135 -44 128 6 -2 18 -8 21 -31 19 -51 -6 -57 8 -57 144 l0 123 43 3 c35 2
43 7 45 26 3 20 -1 22 -42 22 l-46 0 0 55 c0 54 0 55 -30 55 -30 0 -30 -1 -30
-55z"/>
<path d="M3487 824 c-4 -4 -7 -27 -7 -50 0 -39 -2 -43 -27 -46 -20 -2 -28 -9
-28 -23 0 -14 8 -21 28 -23 l27 -3 0 -133 c0 -118 2 -136 20 -159 38 -48 135
-44 128 6 -2 18 -8 21 -31 19 -51 -6 -57 8 -57 144 l0 124 80 0 79 0 3 -157 3
-158 28 -3 27 -3 0 185 0 186 -109 0 -110 0 -3 48 c-2 38 -7 48 -23 50 -12 2
-24 0 -28 -4z"/>
<path d="M7197 823 c-4 -3 -7 -26 -7 -50 0 -41 -1 -43 -31 -43 -26 0 -30 -3
-27 -22 2 -17 11 -24 31 -26 l27 -3 0 -133 c0 -118 2 -136 20 -159 38 -48 135
-44 128 6 -2 18 -8 21 -31 19 -51 -6 -57 8 -57 144 l0 123 43 3 c35 2 43 7 45
26 3 20 -1 22 -42 22 l-46 0 0 44 c0 31 -5 46 -16 50 -20 8 -29 8 -37 -1z"/>
<path d="M10437 824 c-4 -4 -7 -27 -7 -51 0 -41 -1 -43 -31 -43 -26 0 -30 -3
-27 -22 2 -17 11 -24 31 -26 l27 -3 0 -133 c0 -118 2 -136 20 -159 38 -48 135
-44 128 6 -2 18 -8 21 -31 19 -51 -6 -57 8 -57 144 l0 123 43 3 c35 2 43 7 45
26 3 20 -1 22 -42 22 l-45 0 -3 48 c-2 38 -7 48 -23 50 -12 2 -24 0 -28 -4z"/>
<path d="M15887 824 c-4 -4 -7 -27 -7 -51 0 -41 -1 -43 -31 -43 -26 0 -30 -3
-27 -22 2 -17 11 -24 31 -26 l27 -3 0 -133 c0 -118 2 -136 20 -159 38 -48 135
-44 128 6 -2 18 -8 21 -31 19 -51 -6 -57 8 -57 144 l0 123 43 3 c35 2 43 7 45
26 3 20 -1 22 -42 22 l-45 0 -3 48 c-2 38 -7 48 -23 50 -12 2 -24 0 -28 -4z"/>
<path d="M1183 721 c-59 -27 -86 -83 -87 -176 -1 -126 49 -188 151 -189 107
-1 162 67 163 199 0 114 -45 174 -137 182 -33 2 -61 -2 -90 -16z m106 -42 c75
-26 93 -189 26 -246 -37 -33 -98 -31 -129 2 -58 63 -41 211 28 241 38 16 36
16 75 3z"/>
<path d="M1573 721 c-59 -27 -86 -83 -87 -176 -1 -127 49 -188 153 -188 75 0
121 30 146 98 25 64 17 180 -15 225 -42 59 -120 75 -197 41z m106 -42 c75 -26
93 -189 26 -246 -38 -33 -98 -31 -130 3 -39 42 -45 150 -12 206 10 17 58 46
78 48 3 0 20 -5 38 -11z"/>
<path d="M1991 709 l-31 -31 0 26 c0 21 -5 26 -25 26 l-25 0 0 -185 0 -185 25
0 25 0 0 115 c0 121 8 152 49 189 15 13 29 17 51 13 28 -6 30 -4 30 22 0 50
-54 56 -99 10z"/>
<path d="M2845 728 c-11 -6 -30 -20 -42 -31 l-23 -20 0 26 c0 22 -5 27 -25 27
l-25 0 0 -185 0 -185 25 0 25 0 0 129 0 129 40 36 c46 41 58 44 91 17 23 -18
24 -27 29 -163 l5 -143 28 -3 27 -3 0 143 c0 116 -3 150 -18 178 -26 53 -88
75 -137 48z"/>
<path d="M3165 728 c-43 -15 -55 -27 -55 -54 0 -29 1 -29 50 -4 50 25 81 25
114 -1 19 -15 26 -30 26 -53 0 -33 0 -33 -60 -39 -79 -9 -118 -30 -137 -75
-19 -47 -4 -104 34 -130 37 -24 103 -21 142 7 l31 22 0 -21 c0 -16 5 -21 23
-18 22 3 22 5 22 153 0 105 -4 157 -14 173 -25 45 -108 64 -176 40z m135 -237
c0 -71 -84 -117 -130 -71 -49 49 -4 110 81 110 l49 0 0 -39z"/>
<path d="M3995 728 c-11 -6 -30 -20 -42 -31 l-23 -20 0 26 c0 22 -5 27 -25 27
l-25 0 0 -185 0 -185 25 0 25 0 0 129 0 129 40 36 c46 41 58 44 91 17 23 -18
24 -27 29 -163 l5 -143 28 -3 27 -3 0 143 c0 116 -3 150 -18 178 -26 53 -88
75 -137 48z"/>
<path d="M4335 726 c-16 -7 -38 -23 -48 -34 -24 -26 -33 -94 -18 -130 10 -23
9 -34 -4 -58 -19 -37 -19 -54 0 -81 14 -20 14 -25 -5 -55 -51 -84 1 -148 119
-148 103 0 161 45 161 124 0 55 -40 81 -136 89 -81 7 -109 22 -99 49 5 13 17
15 59 11 38 -4 61 -1 85 11 50 26 77 108 51 157 -9 16 -7 19 15 19 20 0 25 5
25 25 0 23 -3 25 -52 25 -29 0 -69 2 -88 5 -19 3 -48 -1 -65 -9z m95 -56 c25
-25 27 -86 3 -112 -25 -28 -77 -24 -103 9 -54 69 38 165 100 103z m38 -303
c20 -16 14 -64 -10 -81 -26 -18 -109 -21 -139 -6 -25 14 -25 64 0 89 17 17 29
19 78 14 32 -3 64 -10 71 -16z"/>
<path d="M5775 728 c-11 -6 -30 -20 -42 -31 l-23 -20 0 26 c0 22 -5 27 -25 27
l-25 0 0 -185 0 -185 25 0 25 0 0 129 0 129 40 36 c22 20 44 36 49 36 6 0 23
-11 38 -24 28 -24 28 -25 31 -165 l4 -141 24 0 24 0 0 129 0 129 40 36 c46 42
50 42 81 17 23 -18 24 -27 29 -163 l5 -143 28 -3 27 -3 0 141 c0 155 -10 196
-54 225 -36 24 -92 14 -129 -23 l-28 -29 -34 34 c-35 35 -72 42 -110 21z"/>
<path d="M6295 728 c-43 -15 -55 -27 -55 -54 0 -29 1 -29 50 -4 22 11 51 20
65 20 35 0 75 -42 75 -78 0 -28 -2 -29 -60 -35 -79 -9 -118 -30 -137 -75 -19
-47 -4 -104 34 -130 37 -24 103 -21 142 7 l31 22 0 -21 c0 -16 5 -21 23 -18
22 3 22 5 22 153 0 105 -4 157 -14 173 -25 45 -108 64 -176 40z m135 -237 c0
-71 -84 -117 -130 -71 -49 49 -4 110 81 110 l49 0 0 -39z"/>
<path d="M6725 728 c-11 -6 -30 -20 -42 -31 l-23 -20 0 26 c0 22 -5 27 -25 27
l-25 0 0 -185 0 -185 25 0 25 0 0 129 0 129 41 36 c30 28 45 35 62 30 48 -14
52 -27 57 -177 l5 -142 28 -3 27 -3 0 143 c0 116 -3 150 -18 178 -26 53 -88
75 -137 48z"/>
<path d="M7465 728 c-43 -15 -55 -27 -55 -54 0 -29 1 -29 50 -4 50 25 81 25
114 -1 19 -15 26 -30 26 -53 0 -33 0 -33 -60 -39 -79 -9 -118 -30 -137 -75
-19 -47 -4 -104 34 -130 37 -24 103 -21 142 7 l31 22 0 -21 c0 -16 5 -21 23
-18 21 3 22 7 25 134 3 160 -7 201 -58 226 -39 20 -89 22 -135 6z m135 -237
c0 -71 -84 -117 -130 -71 -49 49 -4 110 81 110 l49 0 0 -39z"/>
<path d="M7861 709 l-31 -31 0 26 c0 21 -5 26 -25 26 l-25 0 0 -185 0 -185 25
0 25 0 0 115 c0 121 8 152 49 189 15 13 29 17 51 13 28 -6 30 -4 30 22 0 50
-54 56 -99 10z"/>
<path d="M8265 728 c-43 -15 -55 -27 -55 -54 0 -29 1 -29 50 -4 50 25 81 25
114 -1 19 -15 26 -30 26 -53 0 -33 0 -33 -60 -39 -79 -9 -118 -30 -137 -75
-19 -47 -4 -104 34 -130 37 -24 103 -21 142 7 l31 22 0 -21 c0 -16 5 -21 23
-18 21 3 22 7 25 134 3 160 -7 201 -58 226 -39 20 -89 22 -135 6z m135 -237
c0 -71 -84 -117 -130 -71 -49 49 -4 110 81 110 l49 0 0 -39z"/>
<path d="M8685 728 c-11 -6 -30 -20 -42 -31 l-23 -20 0 26 c0 22 -5 27 -25 27
l-25 0 0 -185 0 -185 25 0 25 0 0 129 0 129 40 36 c46 41 58 44 91 17 23 -18
24 -27 29 -163 l5 -143 28 -3 27 -3 0 143 c0 116 -3 150 -18 178 -26 53 -88
75 -137 48z"/>
<path d="M9934 726 c-69 -30 -106 -136 -84 -241 22 -105 98 -150 209 -123 51
12 56 16 59 42 3 24 1 28 -13 22 -98 -37 -164 -24 -190 38 -28 66 -27 66 94
66 127 0 136 5 126 73 -17 110 -106 164 -201 123z m114 -59 c12 -13 25 -37 28
-55 l7 -32 -92 0 c-56 0 -91 4 -91 10 0 23 29 79 47 89 31 18 78 13 101 -12z"/>
<path d="M10734 726 c-69 -30 -106 -136 -84 -241 22 -105 98 -150 209 -123 51
12 56 16 59 42 3 24 1 28 -13 22 -98 -37 -164 -24 -190 38 -28 66 -27 66 94
66 127 0 136 5 126 73 -17 110 -106 164 -201 123z m114 -59 c12 -13 25 -37 28
-55 l7 -32 -92 0 c-56 0 -91 4 -91 10 0 23 29 79 47 89 31 18 78 13 101 -12z"/>
<path d="M11121 709 l-31 -31 0 26 c0 21 -5 26 -25 26 l-25 0 0 -185 0 -185
25 0 25 0 0 115 c0 121 8 152 49 189 15 13 29 17 51 13 28 -6 30 -4 30 22 0
50 -54 56 -99 10z"/>
<path d="M11515 728 c-43 -15 -55 -27 -55 -54 0 -29 1 -29 50 -4 50 25 81 25
114 -1 19 -15 26 -30 26 -53 0 -33 0 -33 -60 -39 -79 -9 -118 -30 -137 -75
-19 -47 -4 -104 34 -130 39 -25 101 -22 141 6 l32 23 0 -21 c0 -16 5 -21 23
-18 21 3 22 7 25 134 3 160 -7 201 -58 226 -39 20 -89 22 -135 6z m135 -237
c0 -71 -84 -117 -130 -71 -49 49 -4 110 81 110 l49 0 0 -39z"/>
<path d="M11945 728 c-11 -6 -30 -20 -42 -31 l-23 -20 0 26 c0 22 -5 27 -25
27 l-25 0 0 -185 0 -185 25 0 25 0 0 129 0 129 40 36 c46 41 58 44 91 17 23
-18 24 -27 29 -163 l5 -143 28 -3 27 -3 0 143 c0 116 -3 150 -18 178 -26 53
-88 75 -137 48z"/>
<path d="M13194 726 c-69 -30 -106 -136 -84 -241 22 -105 98 -150 209 -123 51
12 56 16 59 42 3 24 1 28 -13 22 -98 -37 -164 -24 -190 38 -28 66 -27 66 94
66 127 0 136 5 126 73 -17 110 -106 164 -201 123z m114 -59 c12 -13 25 -37 28
-55 l7 -32 -92 0 c-56 0 -91 4 -91 10 0 23 29 79 47 89 31 18 78 13 101 -12z"/>
<path d="M14214 726 c-69 -30 -106 -136 -84 -241 22 -105 98 -150 209 -123 51
12 56 16 59 42 3 24 1 28 -13 22 -98 -37 -164 -24 -190 38 -28 66 -27 66 94
66 127 0 136 5 126 73 -17 110 -106 164 -201 123z m114 -59 c12 -13 25 -37 28
-55 l7 -32 -92 0 c-56 0 -91 4 -91 10 0 23 29 79 47 89 31 18 78 13 101 -12z"/>
<path d="M14635 728 c-11 -6 -30 -20 -42 -31 l-23 -20 0 26 c0 22 -5 27 -25
27 l-25 0 0 -185 0 -185 25 0 25 0 0 129 0 129 40 36 c22 20 44 36 49 36 6 0
23 -11 38 -24 28 -24 28 -25 31 -165 l4 -141 24 0 24 0 0 129 0 129 40 36 c46
42 50 42 81 17 23 -18 24 -27 29 -163 l5 -143 28 -3 27 -3 0 141 c0 155 -10
196 -54 225 -36 24 -92 14 -129 -23 l-28 -29 -34 34 c-35 35 -72 42 -110 21z"/>
<path d="M15174 726 c-69 -30 -106 -136 -84 -241 22 -105 98 -150 209 -123 51
12 56 16 59 42 3 24 1 28 -13 22 -98 -37 -164 -24 -190 38 -28 66 -27 66 94
66 127 0 136 5 126 73 -17 110 -106 164 -201 123z m114 -59 c12 -13 25 -37 28
-55 l7 -32 -92 0 c-56 0 -91 4 -91 10 0 23 29 79 47 89 31 18 78 13 101 -12z"/>
<path d="M15595 728 c-11 -6 -30 -20 -42 -31 l-23 -20 0 26 c0 22 -5 27 -25
27 l-25 0 0 -185 0 -185 25 0 25 0 0 129 0 129 40 36 c46 41 58 44 91 17 23
-18 24 -27 29 -163 l5 -143 28 -3 27 -3 0 143 c0 116 -3 150 -18 178 -26 53
-88 75 -137 48z"/>
<path d="M16154 725 c-34 -17 -54 -51 -54 -90 0 -47 22 -74 87 -107 64 -32 83
-58 69 -93 -13 -36 -83 -40 -134 -8 -20 12 -23 12 -29 -3 -10 -26 10 -48 56
-63 77 -25 152 14 165 85 10 52 -15 89 -84 124 -72 36 -88 61 -65 97 14 21 22
24 53 20 21 -3 47 -8 60 -12 18 -6 22 -4 22 13 0 11 -7 25 -15 32 -24 20 -96
23 -131 5z"/>
<path d="M2550 545 l0 -185 25 0 25 0 0 185 0 185 -25 0 -25 0 0 -185z"/>
<path d="M5267 723 c-10 -10 -8 -232 3 -277 20 -89 108 -119 183 -62 l37 28 0
-26 c0 -21 5 -26 25 -26 l25 0 0 185 0 185 -30 0 -30 0 0 -129 0 -129 -31 -31
c-36 -37 -77 -41 -105 -10 -16 18 -19 40 -22 160 -3 137 -4 139 -26 139 -13 0
-26 -3 -29 -7z"/>
<path d="M7000 545 l0 -185 25 0 25 0 0 185 0 185 -25 0 -25 0 0 -185z"/>
<path d="M8040 545 l0 -185 25 0 25 0 0 185 0 185 -25 0 -25 0 0 -185z"/>
</g>
</svg>
